# xmcd CD database file
#
# Track frame offsets:
#	150
#	12997
#	27180
#	45100
#	61280
#	73107
#	88477
#	104425
#	115542
#	141835
#	150887
#	168315
#	185842
#	202452
#	214185
#
# Disc length: 3296 seconds
#
# Revision: 0
# Processed by: cddbd v1.4PL0 Copyright (c) Steve Scherf et al.
# Submitted via: CDex 1.40Beta8
#
DISCID=d30cde0f
DTITLE=Johnny Green's Blues Cowboys - At Last
DYEAR=1900
DGENRE=Country
TTITLE0=Hot Dog
TTITLE1=Shanty Boat Blues
TTITLE2=Ain't I'm A Dog
TTITLE3=A Red Cadillac And A Black Moustache
TTITLE4=Maybelline
TTITLE5=Lost Highway
TTITLE6=Clay Pan Boogie
TTITLE7=Say Mama
TTITLE8=I'm Gonna Murder My Baby
TTITLE9=Hawaiian Boogie
TTITLE10=She's A Barmaid In The Honkytonk Downstairs
TTITLE11=Little Mary
TTITLE12=Cocaine Train
TTITLE13=Moon's Rock
TTITLE14=Death Don't Have No Mercy
EXTD=ID3G: 2
EXTT0=
EXTT1=
EXTT2=
EXTT3=
EXTT4=
EXTT5=
EXTT6=
EXTT7=
EXTT8=
EXTT9=
EXTT10=
EXTT11=
EXTT12=
EXTT13=
EXTT14=
PLAYORDER=
